name Walk3.mot
datacolumns 19
datarows 22
range 2.83600000 2.85700000
endheader

                time	   L_ground_force_vx	   L_ground_force_vy	   L_ground_force_vz	   L_ground_force_px	   L_ground_force_py	   L_ground_force_pz	   R_ground_force_vx	   R_ground_force_vy	   R_ground_force_vz	   R_ground_force_px	   R_ground_force_py	   R_ground_force_pz	   L_ground_torque_x	   L_ground_torque_y	   L_ground_torque_z	   R_ground_torque_x	   R_ground_torque_y	   R_ground_torque_z	
          2.83600000	          0.07817430	          0.21824588	         -0.00161144	         -0.00029557	          0.00000000	         -0.00013333	        -14.16603625	        774.39934910	        -59.75330932	          0.25127977	          0.00000000	          0.12049310	          0.00000000	          0.00027594	          0.00000000	          0.00000000	          7.69520755	          0.00000000	
          2.83700000	          0.07447788	          0.20648586	         -0.00194434	         -0.00029321	          0.00000000	         -0.00013256	        -13.92837564	        773.46892771	        -59.51959371	          0.25158240	          0.00000000	          0.12058073	          0.00000000	          0.00025685	          0.00000000	          0.00000000	          7.63196720	          0.00000000	
          2.83800000	          0.07081431	          0.19494547	         -0.00224159	         -0.00028995	          0.00000000	         -0.00013136	        -13.69192194	        772.53519385	        -59.29109015	          0.25188547	          0.00000000	          0.12066860	          0.00000000	          0.00023841	          0.00000000	          0.00000000	          7.56920406	          0.00000000	
          2.83900000	          0.06719464	          0.18364963	         -0.00250510	         -0.00028587	          0.00000000	         -0.00012976	        -13.45677580	        771.59777004	        -59.06820917	          0.25218905	          0.00000000	          0.12075675	          0.00000000	          0.00022063	          0.00000000	          0.00000000	          7.50695655	          0.00000000	
          2.84000000	          0.06362882	          0.17262025	         -0.00273673	         -0.00028105	          0.00000000	         -0.00012781	        -13.22302953	        770.65632193	        -58.85134081	          0.25249318	          0.00000000	          0.12084522	          0.00000000	          0.00020353	          0.00000000	          0.00000000	          7.44526034	          0.00000000	
          2.84100000	          0.06012574	          0.16187634	         -0.00293833	         -0.00027558	          0.00000000	         -0.00012554	        -12.99076637	        769.71056348	        -58.64085301	          0.25279794	          0.00000000	          0.12093405	          0.00000000	          0.00018712	          0.00000000	          0.00000000	          7.38414862	          0.00000000	
          2.84200000	          0.05669330	          0.15143422	         -0.00311168	         -0.00026954	          0.00000000	         -0.00012299	        -12.76005971	        768.76026129	        -58.43709013	          0.25310335	          0.00000000	          0.12102327	          0.00000000	          0.00017140	          0.00000000	          0.00000000	          7.32365220	          0.00000000	
          2.84300000	          0.05333848	          0.14130771	         -0.00325854	         -0.00026299	          0.00000000	         -0.00012019	        -12.53097234	        767.80523757	        -58.24037157	          0.25340945	          0.00000000	          0.12111291	          0.00000000	          0.00015636	          0.00000000	          0.00000000	          7.26379946	          0.00000000	
          2.84400000	          0.05006734	          0.13150822	         -0.00338060	         -0.00025600	          0.00000000	         -0.00011718	        -12.30355570	        766.84537148	        -58.05099064	          0.25371629	          0.00000000	          0.12120303	          0.00000000	          0.00014201	          0.00000000	          0.00000000	          7.20461627	          0.00000000	
          2.84500000	          0.04688514	          0.12204499	         -0.00347950	         -0.00024864	          0.00000000	         -0.00011398	        -12.07784939	        765.88059911	        -57.86921335	          0.25402388	          0.00000000	          0.12129363	          0.00000000	          0.00012835	          0.00000000	          0.00000000	          7.14612598	          0.00000000	
          2.84600000	          0.04379633	          0.11292518	         -0.00355685	         -0.00024097	          0.00000000	         -0.00011062	        -11.85388111	        764.91091295	        -57.69527731	          0.25433224	          0.00000000	          0.12138477	          0.00000000	          0.00011536	          0.00000000	          0.00000000	          7.08834954	          0.00000000	
          2.84700000	          0.04080465	          0.10415405	         -0.00361418	         -0.00023304	          0.00000000	         -0.00010713	        -11.63166705	        763.93636141	        -57.52939069	          0.25464140	          0.00000000	          0.12147645	          0.00000000	          0.00010304	          0.00000000	          0.00000000	          7.03130570	          0.00000000	
          2.84800000	          0.03791314	          0.09573512	         -0.00365298	         -0.00022490	          0.00000000	         -0.00010353	        -11.41121274	        762.95704813	        -57.37173122	          0.25495135	          0.00000000	          0.12156872	          0.00000000	          0.00009138	          0.00000000	          0.00000000	          6.97501116	          0.00000000	
          2.84900000	          0.03512421	          0.08767023	         -0.00367468	         -0.00021661	          0.00000000	         -0.00009984	        -11.19251384	        761.97313068	        -57.22244549	          0.25526211	          0.00000000	          0.12166159	          0.00000000	          0.00008037	          0.00000000	          0.00000000	          6.91948076	          0.00000000	
          2.85000000	          0.03243969	          0.07995977	         -0.00368064	         -0.00020820	          0.00000000	         -0.00009609	        -10.97555695	        760.98481819	        -57.08164819	          0.25557367	          0.00000000	          0.12175508	          0.00000000	          0.00006999	          0.00000000	          0.00000000	          6.86472743	          0.00000000	
          2.85100000	          0.02986083	          0.07260273	         -0.00367219	         -0.00019972	          0.00000000	         -0.00009230	        -10.76032005	        759.99236866	        -56.94942158	          0.25588605	          0.00000000	          0.12184920	          0.00000000	          0.00006022	          0.00000000	          0.00000000	          6.81076225	          0.00000000	
          2.85200000	          0.02738840	          0.06559687	         -0.00365059	         -0.00019120	          0.00000000	         -0.00008848	        -10.54677280	        758.99608615	        -56.82581480	          0.25619923	          0.00000000	          0.12194396	          0.00000000	          0.00005106	          0.00000000	          0.00000000	          6.75759450	          0.00000000	
          2.85300000	          0.02502270	          0.05893881	         -0.00361702	         -0.00018269	          0.00000000	         -0.00008465	        -10.33487693	        757.99631829	        -56.71084340	          0.25651321	          0.00000000	          0.12203937	          0.00000000	          0.00004249	          0.00000000	          0.00000000	          6.70523172	          0.00000000	
          2.85400000	          0.02276358	          0.05262412	         -0.00357264	         -0.00017421	          0.00000000	         -0.00008083	        -10.12458703	        756.99345362	        -56.60448881	          0.25682798	          0.00000000	          0.12213542	          0.00000000	          0.00003448	          0.00000000	          0.00000000	          6.65367981	          0.00000000	
          2.85500000	          0.02061052	          0.04664748	         -0.00351854	         -0.00016580	          0.00000000	         -0.00007703	         -9.91585193	        755.98791863	        -56.50669816	          0.25714354	          0.00000000	          0.12223211	          0.00000000	          0.00002702	          0.00000000	          0.00000000	          6.60294299	          0.00000000	
          2.85600000	          0.01856264	          0.04100273	         -0.00345574	         -0.00015747	          0.00000000	         -0.00007325	         -9.70861653	        754.98017477	        -56.41738423	          0.25745987	          0.00000000	          0.12232940	          0.00000000	          0.00002010	          0.00000000	          0.00000000	          6.55302361	          0.00000000	
          2.85700000	          0.01661873	          0.03568298	         -0.00338522	         -0.00014925	          0.00000000	         -0.00006953	         -9.50282376	        753.97071588	        -56.33642583	          0.25777695	          0.00000000	          0.12242729	          0.00000000	          0.00001369	          0.00000000	          0.00000000	          6.50392193	          0.00000000	
